<?xml version="1.0" encoding="UTF-8"?>
<svg id="Capa_1" data-name="Capa 1" xmlns="http://www.w3.org/2000/svg" viewBox="0 0 100 100">
  <defs>
    <style>
      .cls-1 {
        fill: #de9e39;
      }
    </style>
  </defs>
  <path class="cls-1" d="M50.04,21.19c11.82,0,23.65,0,35.47,0,.33,0,.78-.2,.93,.36,.16,.56-.3,.72-.57,.95-11.76,10.47-23.53,20.93-35.29,31.41-.47,.42-.74,.38-1.18-.02-11.77-10.49-23.56-20.96-35.34-31.44-.1-.09-.23-.16-.29-.28-.1-.2-.23-.46-.2-.65,.03-.15,.28-.27,.45-.33,.17-.06,.36-.01,.54-.01,11.82,0,23.65,0,35.47,0Z"/>
  <path class="cls-1" d="M58.73,50.8c1.62,1.57,3.2,3.11,4.78,4.65,7.44,7.24,14.88,14.48,22.31,21.73,.12,.12,.26,.24,.35,.39,.29,.47,.11,1.07-.37,1.2-.19,.05-.39,.04-.59,.04-23.39,0-46.78,0-70.17,0-.22,0-.45,.06-.64-.02-.24-.11-.57-.29-.63-.53-.07-.24,.06-.69,.23-.88,.65-.71,1.34-1.34,2.02-2.01,8.26-8.04,16.52-16.08,24.76-24.13,.37-.36,.61-.4,1-.04,2.6,2.35,5.22,4.66,7.82,7,.35,.32,.56,.19,.83-.06,2.59-2.32,5.19-4.63,7.79-6.94,.14-.13,.29-.25,.48-.41Z"/>
  <path class="cls-1" d="M38.97,48.77c-1.41,1.37-2.77,2.71-4.15,4.05-7.69,7.49-15.38,14.97-23.07,22.46-.1,.09-.18,.23-.29,.27-.24,.09-.56,.25-.73,.14-.2-.13-.29-.52-.4-.81-.05-.13,0-.29,0-.44,0-16.33,0-32.65,0-48.98,0-.17-.04-.36,0-.51,.1-.29,.2-.68,.4-.81,.17-.11,.53-.01,.72,.15,1.02,.86,2.02,1.77,3.03,2.67,8.03,7.14,16.06,14.28,24.09,21.42,.13,.11,.24,.24,.4,.39Z"/>
  <path class="cls-1" d="M61.04,48.74c.86-.77,1.68-1.5,2.49-2.23,8.18-7.27,16.35-14.54,24.53-21.81,.2-.18,.39-.37,.61-.53,.48-.33,.95-.04,1.01,.62,.01,.15,0,.3,0,.45,0,16.39,0,32.79,0,49.18,0,.47,.11,1.02-.38,1.28-.45,.24-.74-.15-1.04-.45-8.91-8.68-17.82-17.36-26.73-26.03-.15-.14-.29-.3-.48-.5Z"/>
</svg>