<?xml version="1.0" encoding="UTF-8"?>
<svg id="Capa_1" data-name="Capa 1" xmlns="http://www.w3.org/2000/svg" viewBox="0 0 100 100">
  <defs>
    <style>
      .cls-1 {
        fill: #de9e39;
      }
    </style>
  </defs>
  <path class="cls-1" d="M76.69,53.58h-6.17V30.44c0-11.32-9.2-20.52-20.52-20.52s-20.52,9.21-20.52,20.52v23.15h-6.17V30.44c0-14.72,11.97-26.69,26.69-26.69s26.69,11.98,26.69,26.69v23.15Z"/>
  <path class="cls-1" d="M76.41,43.89H23.59c-2.78,0-5.03,2.25-5.03,5.03v42.31c0,2.78,2.25,5.03,5.03,5.03h52.82c2.78,0,5.03-2.25,5.03-5.03V48.92c0-2.78-2.25-5.03-5.03-5.03Zm-23.56,23.01v14.78c0,1.57-1.28,2.85-2.85,2.85s-2.85-1.28-2.85-2.85v-14.78c-1.88-1.02-3.16-2.98-3.16-5.26,0-3.32,2.69-6.01,6.01-6.01s6.01,2.69,6.01,6.01c0,2.28-1.29,4.25-3.16,5.26Z"/>
</svg>