<?xml version="1.0" encoding="UTF-8"?>
<svg id="Capa_1" data-name="Capa 1" xmlns="http://www.w3.org/2000/svg" viewBox="0 0 100 100">
  <defs>
    <style>
      .cls-1 {
        fill: #525258;
      }
    </style>
  </defs>
  <path class="cls-1" d="M14.71,97.9c-1.09-.34-2.24-.56-3.26-1.04-4.73-2.27-6.95-6.11-6.95-11.31,0-14.5,0-29,0-43.5,0-3.93-.08-7.86,.08-11.78,.24-5.78,5.26-10.63,11.06-10.75,4.08-.09,8.17-.04,12.26-.03,1.4,0,2.45,1.01,2.47,2.28,.02,1.29-1.06,2.36-2.5,2.37-3.8,.03-7.61,0-11.41,.02-3.55,.03-6.14,1.97-7.03,5.29-.21,.77-.25,1.6-.25,2.4-.01,17.9-.01,35.8,0,53.69,0,4.79,2.91,7.68,7.7,7.68,22.11,0,44.22,0,66.33,0,3.77,0,6.4-1.87,7.33-5.29,.21-.77,.27-1.6,.27-2.4,.01-17.9,.01-35.8,0-53.69,0-3.84-1.9-6.54-5.28-7.44-.74-.2-1.54-.23-2.31-.24-3.59-.02-7.17,.02-10.76-.04-.65,0-1.37-.21-1.91-.55-.8-.49-1.1-1.34-.86-2.29,.24-.97,.89-1.74,1.84-1.75,4.64-.05,9.33-.35,13.92,.15,6.05,.66,10.01,5.53,10.02,11.71,.05,18.18,.04,36.36,0,54.54-.01,6.14-3.93,10.73-9.89,11.81-.11,.02-.21,.1-.32,.16H14.71Z"/>
  <path class="cls-1" d="M47.65,64.2c0-.58,0-.95,0-1.32,0-19.23,0-38.47,0-57.7,0-1.95,.86-3.08,2.35-3.08,1.48,0,2.33,1.12,2.33,3.09,0,19.23,0,38.47,0,57.7v1.3c.37-.32,.62-.53,.86-.75,4.41-4.14,8.82-8.28,13.22-12.43,.69-.65,1.42-1.11,2.42-.9,1.78,.38,2.48,2.37,1.32,3.77-.18,.21-.39,.4-.59,.6-5.79,5.45-11.58,10.89-17.37,16.34-1.66,1.56-2.68,1.57-4.34,0-5.79-5.45-11.59-10.89-17.37-16.35-.4-.37-.78-.83-.99-1.32-.42-1-.07-2.06,.76-2.67,.8-.59,1.95-.58,2.79,.04,.25,.18,.47,.41,.7,.62,4.41,4.14,8.81,8.29,13.22,12.43,.18,.17,.36,.32,.72,.64Z"/>
</svg>